<svg width="20" height="24" viewBox="0 0 20 24" fill="none" xmlns="http://www.w3.org/2000/svg">
<path d="M9.99935 23.668C11.2827 23.668 12.3327 22.618 12.3327 21.3346H7.66602C7.66602 22.618 8.71602 23.668 9.99935 23.668ZM16.9993 16.668V10.8346C16.9993 7.25297 15.0977 4.25464 11.7493 3.4613V2.66797C11.7493 1.69964 10.9677 0.917969 9.99935 0.917969C9.03102 0.917969 8.24935 1.69964 8.24935 2.66797V3.4613C4.91268 4.25464 2.99935 7.2413 2.99935 10.8346V16.668L0.666016 19.0013V20.168H19.3327V19.0013L16.9993 16.668ZM14.666 17.8346H5.33268V10.8346C5.33268 7.9413 7.09435 5.58464 9.99935 5.58464C12.9043 5.58464 14.666 7.9413 14.666 10.8346V17.8346Z" fill="white"/>
</svg>
