<svg width="20" height="20" viewBox="0 0 20 20" fill="none" xmlns="http://www.w3.org/2000/svg">
<path d="M9.99935 3.0013C11.2827 3.0013 12.3327 4.0513 12.3327 5.33464C12.3327 6.61797 11.2827 7.66797 9.99935 7.66797C8.71602 7.66797 7.66602 6.61797 7.66602 5.33464C7.66602 4.0513 8.71602 3.0013 9.99935 3.0013ZM9.99935 14.668C13.1493 14.668 16.766 16.173 16.9993 17.0013H2.99935C3.26768 16.1613 6.86102 14.668 9.99935 14.668ZM9.99935 0.667969C7.42102 0.667969 5.33268 2.7563 5.33268 5.33464C5.33268 7.91297 7.42102 10.0013 9.99935 10.0013C12.5777 10.0013 14.666 7.91297 14.666 5.33464C14.666 2.7563 12.5777 0.667969 9.99935 0.667969ZM9.99935 12.3346C6.88435 12.3346 0.666016 13.898 0.666016 17.0013V19.3346H19.3327V17.0013C19.3327 13.898 13.1143 12.3346 9.99935 12.3346Z" fill="white"/>
</svg>
